# xmcd
#
# Track frame offsets:
#	150
#	18800
#	39785
#	55792
#	76402
#	93082
#	110472
#	124087
#	142060
#	160527
#
# Disc length: 2359 seconds
#
# Revision: 1
# Processed by: cddbd v1.5.1PL2 Copyright (c) Steve Scherf et al.
# Submitted via: EasyCDDAExtractor 5.0.7
#
DISCID=6c09350a
DTITLE=Alice Bargeron - Waitin' For A Dream
DYEAR=1993
DGENRE=Country
TTITLE0=Give It Up
TTITLE1=Go On
TTITLE2=We Both Lose
TTITLE3=Waitin' For A Dream
TTITLE4=You Could Be The Reason
TTITLE5=When You Wake Up
TTITLE6=Unaware
TTITLE7=Before We Say Goodbye
TTITLE8=High And Dry
TTITLE9=Love'Em And Leave'Em
EXTD=
EXTT0=
EXTT1=
EXTT2=
EXTT3=
EXTT4=
EXTT5=
EXTT6=
EXTT7=
EXTT8=
EXTT9=
PLAYORDER=
